<svg xmlns="http://www.w3.org/2000/svg" width="840" height="352" viewBox="0 0 840 352" role="img">
  <defs>
    <linearGradient id="bg" x1="0" y1="0" x2="1" y2="1">
      <stop offset="0" stop-color="#071323"/>
      <stop offset="0.55" stop-color="#0b2034"/>
      <stop offset="1" stop-color="#0d2c3d"/>
    </linearGradient>
    <radialGradient id="glow" cx="0.5" cy="0.5" r="0.5">
      <stop offset="0" stop-color="#49d6ec" stop-opacity="0.20"/>
      <stop offset="1" stop-color="#49d6ec" stop-opacity="0"/>
    </radialGradient>
    <pattern id="grid" width="24" height="24" patternUnits="userSpaceOnUse">
      <circle cx="2" cy="2" r="1" fill="#49d6ec" fill-opacity="0.10"/>
    </pattern>
  </defs>
  <rect x="1" y="1" width="838" height="350" rx="18" fill="url(#bg)" stroke="#2c6480" stroke-width="1.5"/>
  <clipPath id="card"><rect x="1" y="1" width="838" height="350" rx="18"/></clipPath>
  <ellipse cx="689" cy="0" rx="378" ry="317" fill="url(#glow)" clip-path="url(#card)"/>
  <rect x="1" y="1" width="838" height="350" rx="18" fill="url(#grid)"/>
  <rect x="12" y="12" width="816" height="328" rx="11" fill="#030912" fill-opacity="0.66" stroke="#2c6480" stroke-opacity="0.45"/>
  <rect x="24" y="22" width="792" height="308" rx="12" fill="#071323" fill-opacity="0.92" stroke="#2c6480"/>
  <path d="M24 34 a12 12 0 0 1 12 -12 h768 a12 12 0 0 1 12 12 v18 h-792z" fill="#0f2a40"/>
  <circle cx="46" cy="37" r="5" fill="#ff5f57"/>
  <circle cx="64" cy="37" r="5" fill="#febc2e"/>
  <circle cx="82" cy="37" r="5" fill="#28c840"/>
  <text x="420.0" y="41.5" font-family="ui-monospace, SFMono-Regular, Menlo, Consolas, monospace" font-size="12" font-weight="400" fill="#9cc6d6" text-anchor="middle">wajahat-programmer@github: ~</text>
  <g opacity="0"><animate attributeName="opacity" values="0;0;1;1" keyTimes="0.0000;0.0187;0.0281;1.0000" dur="16s" repeatCount="indefinite" />
    <rect x="62.0" y="76.0" width="6.2" height="6.2" rx="1.6" fill="#5ee6b8"/>
    <rect x="92.1" y="76.0" width="6.2" height="6.2" rx="1.6" fill="#5de5ba"/>
    <rect x="114.8" y="76.0" width="6.2" height="6.2" rx="1.6" fill="#5ce5bc"/>
    <rect x="122.3" y="76.0" width="6.2" height="6.2" rx="1.6" fill="#5ce5bc"/>
    <rect x="129.8" y="76.0" width="6.2" height="6.2" rx="1.6" fill="#5ce4bd"/>
    <rect x="167.5" y="76.0" width="6.2" height="6.2" rx="1.6" fill="#5be4c0"/>
    <rect x="175.1" y="76.0" width="6.2" height="6.2" rx="1.6" fill="#5be3c0"/>
    <rect x="182.6" y="76.0" width="6.2" height="6.2" rx="1.6" fill="#5ae3c1"/>
    <rect x="205.2" y="76.0" width="6.2" height="6.2" rx="1.6" fill="#5ae3c2"/>
    <rect x="212.7" y="76.0" width="6.2" height="6.2" rx="1.6" fill="#5ae3c3"/>
    <rect x="220.3" y="76.0" width="6.2" height="6.2" rx="1.6" fill="#59e2c3"/>
    <rect x="242.9" y="76.0" width="6.2" height="6.2" rx="1.6" fill="#59e2c5"/>
    <rect x="273.0" y="76.0" width="6.2" height="6.2" rx="1.6" fill="#58e1c7"/>
    <rect x="295.6" y="76.0" width="6.2" height="6.2" rx="1.6" fill="#57e1c9"/>
    <rect x="303.2" y="76.0" width="6.2" height="6.2" rx="1.6" fill="#57e1ca"/>
    <rect x="310.7" y="76.0" width="6.2" height="6.2" rx="1.6" fill="#57e0ca"/>
    <rect x="333.3" y="76.0" width="6.2" height="6.2" rx="1.6" fill="#56e0cc"/>
    <rect x="340.9" y="76.0" width="6.2" height="6.2" rx="1.6" fill="#56e0cc"/>
    <rect x="348.4" y="76.0" width="6.2" height="6.2" rx="1.6" fill="#56e0cd"/>
    <rect x="355.9" y="76.0" width="6.2" height="6.2" rx="1.6" fill="#55dfcd"/>
    <rect x="363.5" y="76.0" width="6.2" height="6.2" rx="1.6" fill="#55dfce"/>
    <rect x="431.3" y="76.0" width="6.2" height="6.2" rx="1.6" fill="#53ded3"/>
    <rect x="438.8" y="76.0" width="6.2" height="6.2" rx="1.6" fill="#53ded3"/>
    <rect x="446.4" y="76.0" width="6.2" height="6.2" rx="1.6" fill="#53ddd4"/>
    <rect x="469.0" y="76.0" width="6.2" height="6.2" rx="1.6" fill="#52ddd6"/>
    <rect x="514.2" y="76.0" width="6.2" height="6.2" rx="1.6" fill="#51dcd9"/>
    <rect x="521.7" y="76.0" width="6.2" height="6.2" rx="1.6" fill="#51dcd9"/>
    <rect x="529.3" y="76.0" width="6.2" height="6.2" rx="1.6" fill="#50dcda"/>
    <rect x="536.8" y="76.0" width="6.2" height="6.2" rx="1.6" fill="#50dbda"/>
    <rect x="544.4" y="76.0" width="6.2" height="6.2" rx="1.6" fill="#50dbdb"/>
    <rect x="604.7" y="76.0" width="6.2" height="6.2" rx="1.6" fill="#4edadf"/>
    <rect x="627.3" y="76.0" width="6.2" height="6.2" rx="1.6" fill="#4dd9e1"/>
    <rect x="649.9" y="76.0" width="6.2" height="6.2" rx="1.6" fill="#4dd9e3"/>
    <rect x="680.0" y="76.0" width="6.2" height="6.2" rx="1.6" fill="#4cd8e5"/>
    <rect x="702.6" y="76.0" width="6.2" height="6.2" rx="1.6" fill="#4bd8e7"/>
    <rect x="710.2" y="76.0" width="6.2" height="6.2" rx="1.6" fill="#4bd8e7"/>
    <rect x="717.7" y="76.0" width="6.2" height="6.2" rx="1.6" fill="#4bd7e8"/>
    <rect x="740.3" y="76.0" width="6.2" height="6.2" rx="1.6" fill="#4ad7e9"/>
    <rect x="770.5" y="76.0" width="6.2" height="6.2" rx="1.6" fill="#49d6eb"/>
  </g>
  <g opacity="0"><animate attributeName="opacity" values="0;0;1;1" keyTimes="0.0000;0.0300;0.0394;1.0000" dur="16s" repeatCount="indefinite" />
    <rect x="62.0" y="83.5" width="6.2" height="6.2" rx="1.6" fill="#5ee6b8"/>
    <rect x="92.1" y="83.5" width="6.2" height="6.2" rx="1.6" fill="#5de5ba"/>
    <rect x="107.2" y="83.5" width="6.2" height="6.2" rx="1.6" fill="#5de5bb"/>
    <rect x="137.4" y="83.5" width="6.2" height="6.2" rx="1.6" fill="#5ce4bd"/>
    <rect x="175.1" y="83.5" width="6.2" height="6.2" rx="1.6" fill="#5be3c0"/>
    <rect x="197.7" y="83.5" width="6.2" height="6.2" rx="1.6" fill="#5ae3c2"/>
    <rect x="227.8" y="83.5" width="6.2" height="6.2" rx="1.6" fill="#59e2c4"/>
    <rect x="242.9" y="83.5" width="6.2" height="6.2" rx="1.6" fill="#59e2c5"/>
    <rect x="273.0" y="83.5" width="6.2" height="6.2" rx="1.6" fill="#58e1c7"/>
    <rect x="288.1" y="83.5" width="6.2" height="6.2" rx="1.6" fill="#57e1c8"/>
    <rect x="318.3" y="83.5" width="6.2" height="6.2" rx="1.6" fill="#56e0cb"/>
    <rect x="348.4" y="83.5" width="6.2" height="6.2" rx="1.6" fill="#56e0cd"/>
    <rect x="423.8" y="83.5" width="6.2" height="6.2" rx="1.6" fill="#53ded2"/>
    <rect x="453.9" y="83.5" width="6.2" height="6.2" rx="1.6" fill="#53ddd4"/>
    <rect x="469.0" y="83.5" width="6.2" height="6.2" rx="1.6" fill="#52ddd6"/>
    <rect x="529.3" y="83.5" width="6.2" height="6.2" rx="1.6" fill="#50dcda"/>
    <rect x="604.7" y="83.5" width="6.2" height="6.2" rx="1.6" fill="#4edadf"/>
    <rect x="619.7" y="83.5" width="6.2" height="6.2" rx="1.6" fill="#4edae1"/>
    <rect x="649.9" y="83.5" width="6.2" height="6.2" rx="1.6" fill="#4dd9e3"/>
    <rect x="680.0" y="83.5" width="6.2" height="6.2" rx="1.6" fill="#4cd8e5"/>
    <rect x="695.1" y="83.5" width="6.2" height="6.2" rx="1.6" fill="#4bd8e6"/>
    <rect x="725.2" y="83.5" width="6.2" height="6.2" rx="1.6" fill="#4bd7e8"/>
    <rect x="740.3" y="83.5" width="6.2" height="6.2" rx="1.6" fill="#4ad7e9"/>
    <rect x="747.9" y="83.5" width="6.2" height="6.2" rx="1.6" fill="#4ad7ea"/>
    <rect x="770.5" y="83.5" width="6.2" height="6.2" rx="1.6" fill="#49d6eb"/>
  </g>
  <g opacity="0"><animate attributeName="opacity" values="0;0;1;1" keyTimes="0.0000;0.0412;0.0506;1.0000" dur="16s" repeatCount="indefinite" />
    <rect x="62.0" y="91.1" width="6.2" height="6.2" rx="1.6" fill="#5ee6b8"/>
    <rect x="77.1" y="91.1" width="6.2" height="6.2" rx="1.6" fill="#5ee6b9"/>
    <rect x="92.1" y="91.1" width="6.2" height="6.2" rx="1.6" fill="#5de5ba"/>
    <rect x="107.2" y="91.1" width="6.2" height="6.2" rx="1.6" fill="#5de5bb"/>
    <rect x="114.8" y="91.1" width="6.2" height="6.2" rx="1.6" fill="#5ce5bc"/>
    <rect x="122.3" y="91.1" width="6.2" height="6.2" rx="1.6" fill="#5ce5bc"/>
    <rect x="129.8" y="91.1" width="6.2" height="6.2" rx="1.6" fill="#5ce4bd"/>
    <rect x="137.4" y="91.1" width="6.2" height="6.2" rx="1.6" fill="#5ce4bd"/>
    <rect x="175.1" y="91.1" width="6.2" height="6.2" rx="1.6" fill="#5be3c0"/>
    <rect x="197.7" y="91.1" width="6.2" height="6.2" rx="1.6" fill="#5ae3c2"/>
    <rect x="205.2" y="91.1" width="6.2" height="6.2" rx="1.6" fill="#5ae3c2"/>
    <rect x="212.7" y="91.1" width="6.2" height="6.2" rx="1.6" fill="#5ae3c3"/>
    <rect x="220.3" y="91.1" width="6.2" height="6.2" rx="1.6" fill="#59e2c3"/>
    <rect x="227.8" y="91.1" width="6.2" height="6.2" rx="1.6" fill="#59e2c4"/>
    <rect x="242.9" y="91.1" width="6.2" height="6.2" rx="1.6" fill="#59e2c5"/>
    <rect x="250.4" y="91.1" width="6.2" height="6.2" rx="1.6" fill="#58e2c6"/>
    <rect x="258.0" y="91.1" width="6.2" height="6.2" rx="1.6" fill="#58e2c6"/>
    <rect x="265.5" y="91.1" width="6.2" height="6.2" rx="1.6" fill="#58e1c7"/>
    <rect x="273.0" y="91.1" width="6.2" height="6.2" rx="1.6" fill="#58e1c7"/>
    <rect x="288.1" y="91.1" width="6.2" height="6.2" rx="1.6" fill="#57e1c8"/>
    <rect x="295.6" y="91.1" width="6.2" height="6.2" rx="1.6" fill="#57e1c9"/>
    <rect x="303.2" y="91.1" width="6.2" height="6.2" rx="1.6" fill="#57e1ca"/>
    <rect x="310.7" y="91.1" width="6.2" height="6.2" rx="1.6" fill="#57e0ca"/>
    <rect x="318.3" y="91.1" width="6.2" height="6.2" rx="1.6" fill="#56e0cb"/>
    <rect x="348.4" y="91.1" width="6.2" height="6.2" rx="1.6" fill="#56e0cd"/>
    <rect x="423.8" y="91.1" width="6.2" height="6.2" rx="1.6" fill="#53ded2"/>
    <rect x="431.3" y="91.1" width="6.2" height="6.2" rx="1.6" fill="#53ded3"/>
    <rect x="438.8" y="91.1" width="6.2" height="6.2" rx="1.6" fill="#53ded3"/>
    <rect x="446.4" y="91.1" width="6.2" height="6.2" rx="1.6" fill="#53ddd4"/>
    <rect x="453.9" y="91.1" width="6.2" height="6.2" rx="1.6" fill="#53ddd4"/>
    <rect x="469.0" y="91.1" width="6.2" height="6.2" rx="1.6" fill="#52ddd6"/>
    <rect x="529.3" y="91.1" width="6.2" height="6.2" rx="1.6" fill="#50dcda"/>
    <rect x="604.7" y="91.1" width="6.2" height="6.2" rx="1.6" fill="#4edadf"/>
    <rect x="612.2" y="91.1" width="6.2" height="6.2" rx="1.6" fill="#4edae0"/>
    <rect x="649.9" y="91.1" width="6.2" height="6.2" rx="1.6" fill="#4dd9e3"/>
    <rect x="657.4" y="91.1" width="6.2" height="6.2" rx="1.6" fill="#4dd9e3"/>
    <rect x="664.9" y="91.1" width="6.2" height="6.2" rx="1.6" fill="#4cd9e4"/>
    <rect x="672.5" y="91.1" width="6.2" height="6.2" rx="1.6" fill="#4cd8e4"/>
    <rect x="680.0" y="91.1" width="6.2" height="6.2" rx="1.6" fill="#4cd8e5"/>
    <rect x="695.1" y="91.1" width="6.2" height="6.2" rx="1.6" fill="#4bd8e6"/>
    <rect x="702.6" y="91.1" width="6.2" height="6.2" rx="1.6" fill="#4bd8e7"/>
    <rect x="710.2" y="91.1" width="6.2" height="6.2" rx="1.6" fill="#4bd8e7"/>
    <rect x="717.7" y="91.1" width="6.2" height="6.2" rx="1.6" fill="#4bd7e8"/>
    <rect x="725.2" y="91.1" width="6.2" height="6.2" rx="1.6" fill="#4bd7e8"/>
    <rect x="740.3" y="91.1" width="6.2" height="6.2" rx="1.6" fill="#4ad7e9"/>
    <rect x="755.4" y="91.1" width="6.2" height="6.2" rx="1.6" fill="#4ad7ea"/>
    <rect x="770.5" y="91.1" width="6.2" height="6.2" rx="1.6" fill="#49d6eb"/>
  </g>
  <g opacity="0"><animate attributeName="opacity" values="0;0;1;1" keyTimes="0.0000;0.0525;0.0619;1.0000" dur="16s" repeatCount="indefinite" />
    <rect x="62.0" y="98.6" width="6.2" height="6.2" rx="1.6" fill="#5ee6b8"/>
    <rect x="69.5" y="98.6" width="6.2" height="6.2" rx="1.6" fill="#5ee6b9"/>
    <rect x="84.6" y="98.6" width="6.2" height="6.2" rx="1.6" fill="#5de5ba"/>
    <rect x="92.1" y="98.6" width="6.2" height="6.2" rx="1.6" fill="#5de5ba"/>
    <rect x="107.2" y="98.6" width="6.2" height="6.2" rx="1.6" fill="#5de5bb"/>
    <rect x="137.4" y="98.6" width="6.2" height="6.2" rx="1.6" fill="#5ce4bd"/>
    <rect x="152.4" y="98.6" width="6.2" height="6.2" rx="1.6" fill="#5be4bf"/>
    <rect x="175.1" y="98.6" width="6.2" height="6.2" rx="1.6" fill="#5be3c0"/>
    <rect x="197.7" y="98.6" width="6.2" height="6.2" rx="1.6" fill="#5ae3c2"/>
    <rect x="227.8" y="98.6" width="6.2" height="6.2" rx="1.6" fill="#59e2c4"/>
    <rect x="242.9" y="98.6" width="6.2" height="6.2" rx="1.6" fill="#59e2c5"/>
    <rect x="273.0" y="98.6" width="6.2" height="6.2" rx="1.6" fill="#58e1c7"/>
    <rect x="288.1" y="98.6" width="6.2" height="6.2" rx="1.6" fill="#57e1c8"/>
    <rect x="318.3" y="98.6" width="6.2" height="6.2" rx="1.6" fill="#56e0cb"/>
    <rect x="348.4" y="98.6" width="6.2" height="6.2" rx="1.6" fill="#56e0cd"/>
    <rect x="423.8" y="98.6" width="6.2" height="6.2" rx="1.6" fill="#53ded2"/>
    <rect x="453.9" y="98.6" width="6.2" height="6.2" rx="1.6" fill="#53ddd4"/>
    <rect x="469.0" y="98.6" width="6.2" height="6.2" rx="1.6" fill="#52ddd6"/>
    <rect x="529.3" y="98.6" width="6.2" height="6.2" rx="1.6" fill="#50dcda"/>
    <rect x="604.7" y="98.6" width="6.2" height="6.2" rx="1.6" fill="#4edadf"/>
    <rect x="619.7" y="98.6" width="6.2" height="6.2" rx="1.6" fill="#4edae1"/>
    <rect x="649.9" y="98.6" width="6.2" height="6.2" rx="1.6" fill="#4dd9e3"/>
    <rect x="680.0" y="98.6" width="6.2" height="6.2" rx="1.6" fill="#4cd8e5"/>
    <rect x="695.1" y="98.6" width="6.2" height="6.2" rx="1.6" fill="#4bd8e6"/>
    <rect x="725.2" y="98.6" width="6.2" height="6.2" rx="1.6" fill="#4bd7e8"/>
    <rect x="740.3" y="98.6" width="6.2" height="6.2" rx="1.6" fill="#4ad7e9"/>
    <rect x="762.9" y="98.6" width="6.2" height="6.2" rx="1.6" fill="#49d6eb"/>
    <rect x="770.5" y="98.6" width="6.2" height="6.2" rx="1.6" fill="#49d6eb"/>
  </g>
  <g opacity="0"><animate attributeName="opacity" values="0;0;1;1" keyTimes="0.0000;0.0638;0.0731;1.0000" dur="16s" repeatCount="indefinite" />
    <rect x="62.0" y="106.1" width="6.2" height="6.2" rx="1.6" fill="#5ee6b8"/>
    <rect x="92.1" y="106.1" width="6.2" height="6.2" rx="1.6" fill="#5de5ba"/>
    <rect x="107.2" y="106.1" width="6.2" height="6.2" rx="1.6" fill="#5de5bb"/>
    <rect x="137.4" y="106.1" width="6.2" height="6.2" rx="1.6" fill="#5ce4bd"/>
    <rect x="160.0" y="106.1" width="6.2" height="6.2" rx="1.6" fill="#5be4bf"/>
    <rect x="167.5" y="106.1" width="6.2" height="6.2" rx="1.6" fill="#5be4c0"/>
    <rect x="197.7" y="106.1" width="6.2" height="6.2" rx="1.6" fill="#5ae3c2"/>
    <rect x="227.8" y="106.1" width="6.2" height="6.2" rx="1.6" fill="#59e2c4"/>
    <rect x="242.9" y="106.1" width="6.2" height="6.2" rx="1.6" fill="#59e2c5"/>
    <rect x="273.0" y="106.1" width="6.2" height="6.2" rx="1.6" fill="#58e1c7"/>
    <rect x="288.1" y="106.1" width="6.2" height="6.2" rx="1.6" fill="#57e1c8"/>
    <rect x="318.3" y="106.1" width="6.2" height="6.2" rx="1.6" fill="#56e0cb"/>
    <rect x="348.4" y="106.1" width="6.2" height="6.2" rx="1.6" fill="#56e0cd"/>
    <rect x="423.8" y="106.1" width="6.2" height="6.2" rx="1.6" fill="#53ded2"/>
    <rect x="453.9" y="106.1" width="6.2" height="6.2" rx="1.6" fill="#53ddd4"/>
    <rect x="469.0" y="106.1" width="6.2" height="6.2" rx="1.6" fill="#52ddd6"/>
    <rect x="476.5" y="106.1" width="6.2" height="6.2" rx="1.6" fill="#52ddd6"/>
    <rect x="484.1" y="106.1" width="6.2" height="6.2" rx="1.6" fill="#52ddd7"/>
    <rect x="491.6" y="106.1" width="6.2" height="6.2" rx="1.6" fill="#51dcd7"/>
    <rect x="499.1" y="106.1" width="6.2" height="6.2" rx="1.6" fill="#51dcd8"/>
    <rect x="514.2" y="106.1" width="6.2" height="6.2" rx="1.6" fill="#51dcd9"/>
    <rect x="521.7" y="106.1" width="6.2" height="6.2" rx="1.6" fill="#51dcd9"/>
    <rect x="529.3" y="106.1" width="6.2" height="6.2" rx="1.6" fill="#50dcda"/>
    <rect x="536.8" y="106.1" width="6.2" height="6.2" rx="1.6" fill="#50dbda"/>
    <rect x="544.4" y="106.1" width="6.2" height="6.2" rx="1.6" fill="#50dbdb"/>
    <rect x="604.7" y="106.1" width="6.2" height="6.2" rx="1.6" fill="#4edadf"/>
    <rect x="627.3" y="106.1" width="6.2" height="6.2" rx="1.6" fill="#4dd9e1"/>
    <rect x="649.9" y="106.1" width="6.2" height="6.2" rx="1.6" fill="#4dd9e3"/>
    <rect x="680.0" y="106.1" width="6.2" height="6.2" rx="1.6" fill="#4cd8e5"/>
    <rect x="695.1" y="106.1" width="6.2" height="6.2" rx="1.6" fill="#4bd8e6"/>
    <rect x="725.2" y="106.1" width="6.2" height="6.2" rx="1.6" fill="#4bd7e8"/>
    <rect x="740.3" y="106.1" width="6.2" height="6.2" rx="1.6" fill="#4ad7e9"/>
    <rect x="770.5" y="106.1" width="6.2" height="6.2" rx="1.6" fill="#49d6eb"/>
  </g>
  <g opacity="0"><animate attributeName="opacity" values="0;0;1;1" keyTimes="0.0000;0.0969;0.1000;1.0000" dur="16s" repeatCount="indefinite" />
    <text x="62" y="164" font-family="ui-monospace, SFMono-Regular, Menlo, Consolas, monospace" font-size="13" font-weight="700" fill="#5ee6b8" text-anchor="start">$</text>
  </g>
  <clipPath id="type0"><rect x="82" y="150" height="20" width="0"><animate attributeName="width" values="0;0;53;53" keyTimes="0.0000;0.1125;0.1462;1.0000" dur="16s" repeatCount="indefinite" /></rect></clipPath>
  <g clip-path="url(#type0)">  <text x="82" y="164" font-family="ui-monospace, SFMono-Regular, Menlo, Consolas, monospace" font-size="13" font-weight="400" fill="#f2fbff" text-anchor="start">whoami</text></g>
  <g opacity="0"><animate attributeName="opacity" values="0;0;1;1" keyTimes="0.0000;0.1681;0.1744;1.0000" dur="16s" repeatCount="indefinite" />
    <text x="62" y="187" font-family="ui-monospace, SFMono-Regular, Menlo, Consolas, monospace" font-size="13" font-weight="400" fill="#9cc6d6" text-anchor="start">Sr. Software Engineer · Islamabad, Pakistan</text>
  </g>
  <g opacity="0"><animate attributeName="opacity" values="0;0;1;1" keyTimes="0.0000;0.2213;0.2244;1.0000" dur="16s" repeatCount="indefinite" />
    <text x="62" y="216" font-family="ui-monospace, SFMono-Regular, Menlo, Consolas, monospace" font-size="13" font-weight="700" fill="#5ee6b8" text-anchor="start">$</text>
  </g>
  <clipPath id="type1"><rect x="82" y="202" height="20" width="0"><animate attributeName="width" values="0;0;108;108" keyTimes="0.0000;0.2369;0.3100;1.0000" dur="16s" repeatCount="indefinite" /></rect></clipPath>
  <g clip-path="url(#type1)">  <text x="82" y="216" font-family="ui-monospace, SFMono-Regular, Menlo, Consolas, monospace" font-size="13" font-weight="400" fill="#f2fbff" text-anchor="start">cat focus.txt</text></g>
  <g opacity="0"><animate attributeName="opacity" values="0;0;1;1" keyTimes="0.0000;0.3319;0.3381;1.0000" dur="16s" repeatCount="indefinite" />
    <text x="62" y="239" font-family="ui-monospace, SFMono-Regular, Menlo, Consolas, monospace" font-size="13" font-weight="400" fill="#9cc6d6" text-anchor="start">Healthcare software: RPM, EHR integration, RCM and AI</text>
  </g>
  <g opacity="0"><animate attributeName="opacity" values="0;0;1;1" keyTimes="0.0000;0.3850;0.3881;1.0000" dur="16s" repeatCount="indefinite" />
    <text x="62" y="268" font-family="ui-monospace, SFMono-Regular, Menlo, Consolas, monospace" font-size="13" font-weight="700" fill="#5ee6b8" text-anchor="start">$</text>
  </g>
  <clipPath id="type2"><rect x="82" y="254" height="20" width="0"><animate attributeName="width" values="0;0;76;76" keyTimes="0.0000;0.4006;0.4512;1.0000" dur="16s" repeatCount="indefinite" /></rect></clipPath>
  <g clip-path="url(#type2)">  <text x="82" y="268" font-family="ui-monospace, SFMono-Regular, Menlo, Consolas, monospace" font-size="13" font-weight="400" fill="#f2fbff" text-anchor="start">ls stack/</text></g>
  <g opacity="0"><animate attributeName="opacity" values="0;0;1;1" keyTimes="0.0000;0.4731;0.4794;1.0000" dur="16s" repeatCount="indefinite" />
    <text x="62" y="291" font-family="ui-monospace, SFMono-Regular, Menlo, Consolas, monospace" font-size="13" font-weight="400" fill="#9cc6d6" text-anchor="start">javascript   typescript   react   react-native   node   aws</text>
  </g>
  <g opacity="0"><animate attributeName="opacity" values="0;0;1;1" keyTimes="0.0000;0.5294;0.5325;1.0000" dur="16s" repeatCount="indefinite" />
    <text x="62" y="320" font-family="ui-monospace, SFMono-Regular, Menlo, Consolas, monospace" font-size="13" font-weight="700" fill="#5ee6b8" text-anchor="start">$</text>
    <rect x="82" y="308" width="8" height="15" fill="#5ee6b8"><animate attributeName="opacity" values="1;0" dur="1s" calcMode="discrete" repeatCount="indefinite"/></rect>
  </g>
</svg>
